<svg width="385" height="66" viewBox="0 0 385 66" fill="none" xmlns="http://www.w3.org/2000/svg">
<path d="M12.793 39.0625L19.4922 16.5625H26.0156L16.1133 45H11.8164L12.793 39.0625ZM6.62109 16.5625L13.3008 39.0625L14.3164 45H9.98047L0.136719 16.5625H6.62109ZM34.2578 23.8672V45H28.6133V23.8672H34.2578ZM28.2617 18.3594C28.2617 17.5391 28.5482 16.862 29.1211 16.3281C29.694 15.7943 30.4622 15.5273 31.4258 15.5273C32.3763 15.5273 33.138 15.7943 33.7109 16.3281C34.2969 16.862 34.5898 17.5391 34.5898 18.3594C34.5898 19.1797 34.2969 19.8568 33.7109 20.3906C33.138 20.9245 32.3763 21.1914 31.4258 21.1914C30.4622 21.1914 29.694 20.9245 29.1211 20.3906C28.5482 19.8568 28.2617 19.1797 28.2617 18.3594ZM51.3867 40.3906V15H57.0508V45H51.9531L51.3867 40.3906ZM38.0273 34.6875V34.2773C38.0273 32.6628 38.2096 31.1979 38.5742 29.8828C38.9388 28.5547 39.4727 27.4154 40.1758 26.4648C40.8789 25.5143 41.7448 24.7786 42.7734 24.2578C43.8021 23.737 44.974 23.4766 46.2891 23.4766C47.526 23.4766 48.6068 23.737 49.5312 24.2578C50.4688 24.7786 51.263 25.5208 51.9141 26.4844C52.5781 27.4349 53.112 28.5612 53.5156 29.8633C53.9193 31.1523 54.2122 32.5651 54.3945 34.1016V35C54.2122 36.4714 53.9193 37.8385 53.5156 39.1016C53.112 40.3646 52.5781 41.4714 51.9141 42.4219C51.263 43.3594 50.4688 44.0885 49.5312 44.6094C48.5938 45.1302 47.5 45.3906 46.25 45.3906C44.9349 45.3906 43.763 45.1237 42.7344 44.5898C41.7188 44.056 40.8594 43.3073 40.1562 42.3438C39.4661 41.3802 38.9388 40.2474 38.5742 38.9453C38.2096 37.6432 38.0273 36.224 38.0273 34.6875ZM43.6523 34.2773V34.6875C43.6523 35.5599 43.7174 36.3737 43.8477 37.1289C43.9909 37.8841 44.2188 38.5547 44.5312 39.1406C44.8568 39.7135 45.2734 40.1628 45.7812 40.4883C46.3021 40.8008 46.9336 40.957 47.6758 40.957C48.6393 40.957 49.4336 40.7422 50.0586 40.3125C50.6836 39.8698 51.1589 39.2643 51.4844 38.4961C51.8229 37.7279 52.0182 36.8424 52.0703 35.8398V33.2812C52.0312 32.4609 51.9141 31.7253 51.7188 31.0742C51.5365 30.4102 51.263 29.8438 50.8984 29.375C50.5469 28.9062 50.1042 28.5417 49.5703 28.2812C49.0495 28.0208 48.431 27.8906 47.7148 27.8906C46.9857 27.8906 46.3607 28.0599 45.8398 28.3984C45.319 28.724 44.8958 29.1732 44.5703 29.7461C44.2578 30.319 44.0234 30.9961 43.8672 31.7773C43.724 32.5456 43.6523 33.3789 43.6523 34.2773ZM71.1719 45.3906C69.5312 45.3906 68.0599 45.1302 66.7578 44.6094C65.4557 44.0755 64.349 43.3398 63.4375 42.4023C62.5391 41.4648 61.849 40.3776 61.3672 39.1406C60.8854 37.8906 60.6445 36.5625 60.6445 35.1562V34.375C60.6445 32.7734 60.8724 31.3086 61.3281 29.9805C61.7839 28.6523 62.4349 27.5 63.2812 26.5234C64.1406 25.5469 65.1823 24.7982 66.4062 24.2773C67.6302 23.7435 69.0104 23.4766 70.5469 23.4766C72.0443 23.4766 73.3724 23.724 74.5312 24.2188C75.6901 24.7135 76.6602 25.4167 77.4414 26.3281C78.2357 27.2396 78.8346 28.3333 79.2383 29.6094C79.6419 30.8724 79.8438 32.2786 79.8438 33.8281V36.1719H63.0469V32.4219H74.3164V31.9922C74.3164 31.2109 74.1732 30.5143 73.8867 29.9023C73.6133 29.2773 73.1966 28.7826 72.6367 28.418C72.0768 28.0534 71.3607 27.8711 70.4883 27.8711C69.7461 27.8711 69.1081 28.0339 68.5742 28.3594C68.0404 28.6849 67.6042 29.1406 67.2656 29.7266C66.9401 30.3125 66.6927 31.0026 66.5234 31.7969C66.3672 32.5781 66.2891 33.4375 66.2891 34.375V35.1562C66.2891 36.0026 66.4062 36.7839 66.6406 37.5C66.888 38.2161 67.2331 38.8346 67.6758 39.3555C68.1315 39.8763 68.6784 40.2799 69.3164 40.5664C69.9674 40.8529 70.7031 40.9961 71.5234 40.9961C72.5391 40.9961 73.4831 40.8008 74.3555 40.4102C75.2409 40.0065 76.0026 39.401 76.6406 38.5938L79.375 41.5625C78.9323 42.2005 78.3268 42.8125 77.5586 43.3984C76.8034 43.9844 75.8919 44.4661 74.8242 44.8438C73.7565 45.2083 72.5391 45.3906 71.1719 45.3906ZM82.1484 34.6484V34.2383C82.1484 32.6888 82.3698 31.263 82.8125 29.9609C83.2552 28.6458 83.8997 27.5065 84.7461 26.543C85.5924 25.5794 86.6341 24.8307 87.8711 24.2969C89.1081 23.75 90.5273 23.4766 92.1289 23.4766C93.7305 23.4766 95.1562 23.75 96.4062 24.2969C97.6562 24.8307 98.7044 25.5794 99.5508 26.543C100.41 27.5065 101.061 28.6458 101.504 29.9609C101.947 31.263 102.168 32.6888 102.168 34.2383V34.6484C102.168 36.1849 101.947 37.6107 101.504 38.9258C101.061 40.2279 100.41 41.3672 99.5508 42.3438C98.7044 43.3073 97.6628 44.056 96.4258 44.5898C95.1888 45.1237 93.7695 45.3906 92.168 45.3906C90.5664 45.3906 89.1406 45.1237 87.8906 44.5898C86.6536 44.056 85.6055 43.3073 84.7461 42.3438C83.8997 41.3672 83.2552 40.2279 82.8125 38.9258C82.3698 37.6107 82.1484 36.1849 82.1484 34.6484ZM87.7734 34.2383V34.6484C87.7734 35.5339 87.8516 36.3607 88.0078 37.1289C88.1641 37.8971 88.4115 38.5742 88.75 39.1602C89.1016 39.7331 89.5573 40.1823 90.1172 40.5078C90.6771 40.8333 91.3607 40.9961 92.168 40.9961C92.9492 40.9961 93.6198 40.8333 94.1797 40.5078C94.7396 40.1823 95.1888 39.7331 95.5273 39.1602C95.8659 38.5742 96.1133 37.8971 96.2695 37.1289C96.4388 36.3607 96.5234 35.5339 96.5234 34.6484V34.2383C96.5234 33.3789 96.4388 32.5716 96.2695 31.8164C96.1133 31.0482 95.8594 30.3711 95.5078 29.7852C95.1693 29.1862 94.7201 28.7174 94.1602 28.3789C93.6003 28.0404 92.9232 27.8711 92.1289 27.8711C91.3346 27.8711 90.6576 28.0404 90.0977 28.3789C89.5508 28.7174 89.1016 29.1862 88.75 29.7852C88.4115 30.3711 88.1641 31.0482 88.0078 31.8164C87.8516 32.5716 87.7734 33.3789 87.7734 34.2383ZM117.051 34.8633H109.805V30.293H117.051C118.171 30.293 119.082 30.1107 119.785 29.7461C120.488 29.3685 121.003 28.8477 121.328 28.1836C121.654 27.5195 121.816 26.7708 121.816 25.9375C121.816 25.0911 121.654 24.3034 121.328 23.5742C121.003 22.8451 120.488 22.2591 119.785 21.8164C119.082 21.3737 118.171 21.1523 117.051 21.1523H111.836V45H105.977V16.5625H117.051C119.277 16.5625 121.185 16.9661 122.773 17.7734C124.375 18.5677 125.599 19.668 126.445 21.0742C127.292 22.4805 127.715 24.0885 127.715 25.8984C127.715 27.7344 127.292 29.3229 126.445 30.6641C125.599 32.0052 124.375 33.0404 122.773 33.7695C121.185 34.4987 119.277 34.8633 117.051 34.8633ZM137.344 15V45H131.699V15H137.344ZM153.398 40.2344V30.8203C153.398 30.1432 153.288 29.5638 153.066 29.082C152.845 28.5872 152.5 28.2031 152.031 27.9297C151.576 27.6562 150.983 27.5195 150.254 27.5195C149.629 27.5195 149.089 27.6302 148.633 27.8516C148.177 28.0599 147.826 28.3659 147.578 28.7695C147.331 29.1602 147.207 29.6224 147.207 30.1562H141.582C141.582 29.2578 141.79 28.4049 142.207 27.5977C142.624 26.7904 143.229 26.0807 144.023 25.4688C144.818 24.8438 145.762 24.3555 146.855 24.0039C147.962 23.6523 149.199 23.4766 150.566 23.4766C152.207 23.4766 153.665 23.75 154.941 24.2969C156.217 24.8438 157.22 25.6641 157.949 26.7578C158.691 27.8516 159.062 29.2188 159.062 30.8594V39.9023C159.062 41.0612 159.134 42.0117 159.277 42.7539C159.421 43.4831 159.629 44.1211 159.902 44.668V45H154.219C153.945 44.4271 153.737 43.7109 153.594 42.8516C153.464 41.9792 153.398 41.1068 153.398 40.2344ZM154.141 32.1289L154.18 35.3125H151.035C150.293 35.3125 149.648 35.3971 149.102 35.5664C148.555 35.7357 148.105 35.9766 147.754 36.2891C147.402 36.5885 147.142 36.9401 146.973 37.3438C146.816 37.7474 146.738 38.1901 146.738 38.6719C146.738 39.1536 146.849 39.5898 147.07 39.9805C147.292 40.3581 147.611 40.6576 148.027 40.8789C148.444 41.0872 148.932 41.1914 149.492 41.1914C150.339 41.1914 151.074 41.0221 151.699 40.6836C152.324 40.3451 152.806 39.9284 153.145 39.4336C153.496 38.9388 153.678 38.4701 153.691 38.0273L155.176 40.4102C154.967 40.944 154.681 41.4974 154.316 42.0703C153.965 42.6432 153.516 43.1836 152.969 43.6914C152.422 44.1862 151.764 44.5964 150.996 44.9219C150.228 45.2344 149.316 45.3906 148.262 45.3906C146.921 45.3906 145.703 45.1237 144.609 44.5898C143.529 44.043 142.669 43.2943 142.031 42.3438C141.406 41.3802 141.094 40.2865 141.094 39.0625C141.094 37.9557 141.302 36.9727 141.719 36.1133C142.135 35.2539 142.747 34.5312 143.555 33.9453C144.375 33.3464 145.397 32.8971 146.621 32.5977C147.845 32.2852 149.264 32.1289 150.879 32.1289H154.141ZM173.75 23.8672V27.8516H161.445V23.8672H173.75ZM164.492 18.6523H170.117V38.6328C170.117 39.2448 170.195 39.7135 170.352 40.0391C170.521 40.3646 170.768 40.5924 171.094 40.7227C171.419 40.8398 171.829 40.8984 172.324 40.8984C172.676 40.8984 172.988 40.8854 173.262 40.8594C173.548 40.8203 173.789 40.7812 173.984 40.7422L174.004 44.8828C173.522 45.0391 173.001 45.1628 172.441 45.2539C171.882 45.3451 171.263 45.3906 170.586 45.3906C169.349 45.3906 168.268 45.1888 167.344 44.7852C166.432 44.3685 165.729 43.7044 165.234 42.793C164.74 41.8815 164.492 40.6836 164.492 39.1992V18.6523ZM184.121 45H178.457V21.9922C178.457 20.3906 178.77 19.043 179.395 17.9492C180.033 16.8424 180.924 16.0091 182.07 15.4492C183.229 14.8763 184.603 14.5898 186.191 14.5898C186.712 14.5898 187.214 14.6289 187.695 14.707C188.177 14.7721 188.646 14.8568 189.102 14.9609L189.043 19.1992C188.796 19.1341 188.535 19.0885 188.262 19.0625C187.988 19.0365 187.669 19.0234 187.305 19.0234C186.628 19.0234 186.048 19.1406 185.566 19.375C185.098 19.5964 184.74 19.9284 184.492 20.3711C184.245 20.8138 184.121 21.3542 184.121 21.9922V45ZM188.34 23.8672V27.8516H175.312V23.8672H188.34ZM190.391 34.6484V34.2383C190.391 32.6888 190.612 31.263 191.055 29.9609C191.497 28.6458 192.142 27.5065 192.988 26.543C193.835 25.5794 194.876 24.8307 196.113 24.2969C197.35 23.75 198.77 23.4766 200.371 23.4766C201.973 23.4766 203.398 23.75 204.648 24.2969C205.898 24.8307 206.947 25.5794 207.793 26.543C208.652 27.5065 209.303 28.6458 209.746 29.9609C210.189 31.263 210.41 32.6888 210.41 34.2383V34.6484C210.41 36.1849 210.189 37.6107 209.746 38.9258C209.303 40.2279 208.652 41.3672 207.793 42.3438C206.947 43.3073 205.905 44.056 204.668 44.5898C203.431 45.1237 202.012 45.3906 200.41 45.3906C198.809 45.3906 197.383 45.1237 196.133 44.5898C194.896 44.056 193.848 43.3073 192.988 42.3438C192.142 41.3672 191.497 40.2279 191.055 38.9258C190.612 37.6107 190.391 36.1849 190.391 34.6484ZM196.016 34.2383V34.6484C196.016 35.5339 196.094 36.3607 196.25 37.1289C196.406 37.8971 196.654 38.5742 196.992 39.1602C197.344 39.7331 197.799 40.1823 198.359 40.5078C198.919 40.8333 199.603 40.9961 200.41 40.9961C201.191 40.9961 201.862 40.8333 202.422 40.5078C202.982 40.1823 203.431 39.7331 203.77 39.1602C204.108 38.5742 204.355 37.8971 204.512 37.1289C204.681 36.3607 204.766 35.5339 204.766 34.6484V34.2383C204.766 33.3789 204.681 32.5716 204.512 31.8164C204.355 31.0482 204.102 30.3711 203.75 29.7852C203.411 29.1862 202.962 28.7174 202.402 28.3789C201.842 28.0404 201.165 27.8711 200.371 27.8711C199.577 27.8711 198.9 28.0404 198.34 28.3789C197.793 28.7174 197.344 29.1862 196.992 29.7852C196.654 30.3711 196.406 31.0482 196.25 31.8164C196.094 32.5716 196.016 33.3789 196.016 34.2383ZM219.492 28.4766V45H213.867V23.8672H219.16L219.492 28.4766ZM225.859 23.7305L225.762 28.9453C225.488 28.9062 225.156 28.8737 224.766 28.8477C224.388 28.8086 224.043 28.7891 223.73 28.7891C222.936 28.7891 222.246 28.8932 221.66 29.1016C221.087 29.2969 220.605 29.5898 220.215 29.9805C219.837 30.3711 219.551 30.8464 219.355 31.4062C219.173 31.9661 219.069 32.6042 219.043 33.3203L217.91 32.9688C217.91 31.6016 218.047 30.3451 218.32 29.1992C218.594 28.0404 218.991 27.0312 219.512 26.1719C220.046 25.3125 220.697 24.6484 221.465 24.1797C222.233 23.7109 223.112 23.4766 224.102 23.4766C224.414 23.4766 224.733 23.5026 225.059 23.5547C225.384 23.5938 225.651 23.6523 225.859 23.7305ZM234.141 28.2422V45H228.496V23.8672H233.789L234.141 28.2422ZM233.359 33.6914H231.797C231.797 32.2201 231.973 30.8659 232.324 29.6289C232.689 28.3789 233.216 27.2982 233.906 26.3867C234.609 25.4622 235.475 24.7461 236.504 24.2383C237.533 23.7305 238.724 23.4766 240.078 23.4766C241.016 23.4766 241.875 23.6198 242.656 23.9062C243.438 24.1797 244.108 24.6159 244.668 25.2148C245.241 25.8008 245.684 26.569 245.996 27.5195C246.309 28.457 246.465 29.5833 246.465 30.8984V45H240.84V31.5234C240.84 30.5599 240.71 29.8177 240.449 29.2969C240.189 28.776 239.818 28.4115 239.336 28.2031C238.867 27.9948 238.301 27.8906 237.637 27.8906C236.908 27.8906 236.27 28.0404 235.723 28.3398C235.189 28.6393 234.746 29.056 234.395 29.5898C234.043 30.1107 233.783 30.7227 233.613 31.4258C233.444 32.1289 233.359 32.8841 233.359 33.6914ZM245.938 33.0469L243.926 33.3008C243.926 31.9206 244.095 30.638 244.434 29.4531C244.785 28.2682 245.299 27.2266 245.977 26.3281C246.667 25.4297 247.52 24.7331 248.535 24.2383C249.551 23.7305 250.723 23.4766 252.051 23.4766C253.066 23.4766 253.991 23.6263 254.824 23.9258C255.658 24.2122 256.367 24.6745 256.953 25.3125C257.552 25.9375 258.008 26.7578 258.32 27.7734C258.646 28.7891 258.809 30.0326 258.809 31.5039V45H253.164V31.5039C253.164 30.5273 253.034 29.7852 252.773 29.2773C252.526 28.7565 252.161 28.3984 251.68 28.2031C251.211 27.9948 250.651 27.8906 250 27.8906C249.323 27.8906 248.73 28.0273 248.223 28.3008C247.715 28.5612 247.292 28.9258 246.953 29.3945C246.615 29.8633 246.361 30.4102 246.191 31.0352C246.022 31.6471 245.938 32.3177 245.938 33.0469Z" fill="black"/>
<path d="M301.72 40L298.52 34.44H296.78V40H294.5V26.1H299.3C300.367 26.1 301.267 26.2867 302 26.66C302.747 27.0333 303.3 27.5333 303.66 28.16C304.033 28.7867 304.22 29.4867 304.22 30.26C304.22 31.1667 303.953 31.9933 303.42 32.74C302.9 33.4733 302.093 33.9733 301 34.24L304.44 40H301.72ZM296.78 32.62H299.3C300.153 32.62 300.793 32.4067 301.22 31.98C301.66 31.5533 301.88 30.98 301.88 30.26C301.88 29.54 301.667 28.98 301.24 28.58C300.813 28.1667 300.167 27.96 299.3 27.96H296.78V32.62ZM317.237 34.22C317.237 34.6333 317.21 35.0067 317.157 35.34H308.737C308.803 36.22 309.13 36.9267 309.717 37.46C310.303 37.9933 311.023 38.26 311.877 38.26C313.103 38.26 313.97 37.7467 314.477 36.72H316.937C316.603 37.7333 315.997 38.5667 315.117 39.22C314.25 39.86 313.17 40.18 311.877 40.18C310.823 40.18 309.877 39.9467 309.037 39.48C308.21 39 307.557 38.3333 307.077 37.48C306.61 36.6133 306.377 35.6133 306.377 34.48C306.377 33.3467 306.603 32.3533 307.057 31.5C307.523 30.6333 308.17 29.9667 308.997 29.5C309.837 29.0333 310.797 28.8 311.877 28.8C312.917 28.8 313.843 29.0267 314.657 29.48C315.47 29.9333 316.103 30.5733 316.557 31.4C317.01 32.2133 317.237 33.1533 317.237 34.22ZM314.857 33.5C314.843 32.66 314.543 31.9867 313.957 31.48C313.37 30.9733 312.643 30.72 311.777 30.72C310.99 30.72 310.317 30.9733 309.757 31.48C309.197 31.9733 308.863 32.6467 308.757 33.5H314.857ZM318.72 34.44C318.72 33.3333 318.947 32.3533 319.4 31.5C319.867 30.6467 320.494 29.9867 321.28 29.52C322.08 29.04 322.96 28.8 323.92 28.8C324.787 28.8 325.54 28.9733 326.18 29.32C326.834 29.6533 327.354 30.0733 327.74 30.58V28.98H330.04V40H327.74V38.36C327.354 38.88 326.827 39.3133 326.16 39.66C325.494 40.0067 324.734 40.18 323.88 40.18C322.934 40.18 322.067 39.94 321.28 39.46C320.494 38.9667 319.867 38.2867 319.4 37.42C318.947 36.54 318.72 35.5467 318.72 34.44ZM327.74 34.48C327.74 33.72 327.58 33.06 327.26 32.5C326.954 31.94 326.547 31.5133 326.04 31.22C325.534 30.9267 324.987 30.78 324.4 30.78C323.814 30.78 323.267 30.9267 322.76 31.22C322.254 31.5 321.84 31.92 321.52 32.48C321.214 33.0267 321.06 33.68 321.06 34.44C321.06 35.2 321.214 35.8667 321.52 36.44C321.84 37.0133 322.254 37.4533 322.76 37.76C323.28 38.0533 323.827 38.2 324.4 38.2C324.987 38.2 325.534 38.0533 326.04 37.76C326.547 37.4667 326.954 37.04 327.26 36.48C327.58 35.9067 327.74 35.24 327.74 34.48ZM332.275 34.48C332.275 33.3467 332.502 32.3533 332.955 31.5C333.422 30.6333 334.062 29.9667 334.875 29.5C335.688 29.0333 336.622 28.8 337.675 28.8C339.008 28.8 340.108 29.12 340.975 29.76C341.855 30.3867 342.448 31.2867 342.755 32.46H340.295C340.095 31.9133 339.775 31.4867 339.335 31.18C338.895 30.8733 338.342 30.72 337.675 30.72C336.742 30.72 335.995 31.0533 335.435 31.72C334.888 32.3733 334.615 33.2933 334.615 34.48C334.615 35.6667 334.888 36.5933 335.435 37.26C335.995 37.9267 336.742 38.26 337.675 38.26C338.995 38.26 339.868 37.68 340.295 36.52H342.755C342.435 37.64 341.835 38.5333 340.955 39.2C340.075 39.8533 338.982 40.18 337.675 40.18C336.622 40.18 335.688 39.9467 334.875 39.48C334.062 39 333.422 38.3333 332.955 37.48C332.502 36.6133 332.275 35.6133 332.275 34.48ZM347.687 30.84V36.94C347.687 37.3533 347.781 37.6533 347.967 37.84C348.167 38.0133 348.501 38.1 348.967 38.1H350.367V40H348.567C347.541 40 346.754 39.76 346.207 39.28C345.661 38.8 345.387 38.02 345.387 36.94V30.84H344.087V28.98H345.387V26.24H347.687V28.98H350.367V30.84H347.687ZM360.929 31.8V33.72H352.709V31.8H360.929ZM371.748 26.1V36.12C371.748 37.36 371.368 38.34 370.608 39.06C369.861 39.78 368.875 40.14 367.648 40.14C366.421 40.14 365.428 39.78 364.668 39.06C363.921 38.34 363.548 37.36 363.548 36.12H365.848C365.861 36.7333 366.015 37.22 366.308 37.58C366.615 37.94 367.061 38.12 367.648 38.12C368.235 38.12 368.681 37.94 368.988 37.58C369.295 37.2067 369.448 36.72 369.448 36.12V26.1H371.748ZM379.457 40.18C378.59 40.18 377.81 40.0267 377.117 39.72C376.437 39.4 375.897 38.9733 375.497 38.44C375.097 37.8933 374.884 37.2867 374.857 36.62H377.217C377.257 37.0867 377.477 37.48 377.877 37.8C378.29 38.1067 378.804 38.26 379.417 38.26C380.057 38.26 380.55 38.14 380.897 37.9C381.257 37.6467 381.437 37.3267 381.437 36.94C381.437 36.5267 381.237 36.22 380.837 36.02C380.45 35.82 379.83 35.6 378.977 35.36C378.15 35.1333 377.477 34.9133 376.957 34.7C376.437 34.4867 375.984 34.16 375.597 33.72C375.224 33.28 375.037 32.7 375.037 31.98C375.037 31.3933 375.21 30.86 375.557 30.38C375.904 29.8867 376.397 29.5 377.037 29.22C377.69 28.94 378.437 28.8 379.277 28.8C380.53 28.8 381.537 29.12 382.297 29.76C383.07 30.3867 383.484 31.2467 383.537 32.34H381.257C381.217 31.8467 381.017 31.4533 380.657 31.16C380.297 30.8667 379.81 30.72 379.197 30.72C378.597 30.72 378.137 30.8333 377.817 31.06C377.497 31.2867 377.337 31.5867 377.337 31.96C377.337 32.2533 377.444 32.5 377.657 32.7C377.87 32.9 378.13 33.06 378.437 33.18C378.744 33.2867 379.197 33.4267 379.797 33.6C380.597 33.8133 381.25 34.0333 381.757 34.26C382.277 34.4733 382.724 34.7933 383.097 35.22C383.47 35.6467 383.664 36.2133 383.677 36.92C383.677 37.5467 383.504 38.1067 383.157 38.6C382.81 39.0933 382.317 39.48 381.677 39.76C381.05 40.04 380.31 40.18 379.457 40.18Z" fill="#6C6C6C"/>
<rect x="274" width="8" height="66" fill="#0081DE"/>
</svg>
